<svg xmlns="http://www.w3.org/2000/svg"
shape-rendering="geometricPrecision"
width="4000" height="4000" viewBox="0 0 622 622">
  <metadata>null</metadata>

<path d="
M 28.439 438.093
C 28.466 437.851 28.494 437.61 28.521 437.369
C 34.3 437.417 40.089 437.436 45.872 437.4
C 49.375 437.379 53.235 436.987 56.668 437.794
C 61.859 439.014 65.912 442.998 65.892 448.502
C 65.883 450.869 65.419 453.312 63.882 455.195
C 63.033 456.236 60.915 457.263 60.624 458.494
C 69.983 461.383 70.249 474.426 62.233 479.021
C 58.022 481.435 53.178 481.237 48.498 481.228
C 41.876 481.215 35.254 481.14 28.633 481.202
C 28.253 477.367 28.487 473.425 28.477 469.574
C 28.46 463.486 28.406 457.413 28.547 451.325
C 28.649 446.931 28.071 442.474 28.439 438.093 Z
M 34.775 443.29
C 34.871 447.394 34.969 451.68 34.65 455.776
C 38.898 456.059 43.246 455.81 47.505 455.829
C 50.155 455.841 53.275 456.155 55.771 455.095
C 60.491 453.09 61.132 446.41 56.449 443.917
C 54.458 442.858 51.679 443.178 49.498 443.192
C 44.597 443.225 39.673 443.387 34.775 443.29 Z
M 34.871 461.986
C 34.811 466.345 34.321 471.153 34.879 475.474
C 39.381 475.044 43.992 475.403 48.509 475.416
C 50.757 475.423 53.084 475.581 55.314 475.24
C 60.967 474.377 64.576 467.618 59.643 463.293
C 57.535 461.445 54.855 461.355 52.2 461.301
C 48.472 461.225 44.732 461.288 41.004 461.344
C 39.504 461.367 35.817 460.789 34.871 461.986 Z"
opacity="1" fill="rgb(24,56,116)" fill-rule="evenodd" />
<path d="
M 45.966 144.607
C 45.961 144.386 45.956 144.165 45.951 143.943
C 47.461 143.332 49.382 143.61 51.005 143.588
C 54.673 143.539 58.342 143.524 62.01 143.518
C 74.176 143.497 86.342 143.5 98.508 143.494
C 106.175 143.49 113.841 143.496 121.508 143.496
C 147.784 143.496 176.893 140.671 198.364 158.959
C 201.491 161.622 204.419 164.648 206.776 168.025
C 209.645 172.136 212.111 176.353 213.828 181.079
C 216.17 187.528 217.185 194.189 217.492 201.012
C 217.867 209.337 216.567 217.951 213.498 225.724
C 210.749 232.686 206.178 238.868 200.585 243.809
C 199.395 244.86 198.11 245.953 196.759 246.792
C 195.577 247.526 193.972 248.14 193.082 249.173
C 205.382 254.17 216.5 261.21 223.861 272.599
C 241.666 300.146 235.243 341.878 208.124 361.019
C 189.119 374.433 166.893 375.257 144.501 375.235
C 130.834 375.222 117.167 375.238 103.5 375.241
C 94.167 375.243 84.834 375.281 75.501 375.261
C 72.67 375.255 69.835 375.225 67.004 375.26
C 65.84 375.275 64.386 375.566 63.265 375.264
C 64.35 372.825 66.973 370.599 68.735 368.607
C 72.676 364.154 76.8 359.827 81.678 356.39
C 83.795 354.899 86.002 353.285 88.551 352.634
C 90.807 352.058 93.36 352.244 95.671 352.221
C 100.116 352.176 104.561 352.195 109.006 352.193
C 118.007 352.189 127.009 352.161 136.01 352.126
C 157.745 352.041 184.496 354.741 200.083 336.206
C 202.374 333.481 204.218 330.343 205.719 327.124
C 208.522 321.113 209.668 314.241 209.658 307.639
C 209.651 302.69 209.06 297.595 207.41 292.911
C 206.068 289.104 204.297 285.36 201.902 282.095
C 200.094 279.629 198.065 277.271 195.74 275.281
C 178.737 260.729 154.759 263.44 134.006 263.461
C 127.192 263.468 120.379 263.485 113.565 263.468
C 109.319 263.458 105.074 263.568 100.828 263.564
C 98.702 263.562 96.178 263.845 94.124 263.219
C 87.385 261.167 82.797 255.07 80.472 248.778
C 79.824 247.024 79.239 245.208 78.711 243.414
C 78.576 242.954 78.075 241.86 78.128 241.415
C 78.229 240.562 79.407 240.757 80.008 240.73
C 82.121 240.632 84.252 240.604 86.369 240.589
C 95.583 240.522 104.79 240.421 114.007 240.434
C 121.24 240.444 128.474 240.401 135.707 240.415
C 153.077 240.447 174.72 243.054 186.551 227.13
C 188.336 224.728 189.886 221.998 190.973 219.208
C 192.443 215.435 193.189 211.49 193.568 207.474
C 195.158 190.639 185.548 174.27 168.935 169.57
C 158.76 166.692 148.47 167.075 138.004 167.101
C 124.837 167.133 111.669 167.159 98.502 167.182
C 89.124 167.198 79.612 166.769 70.251 167.332
C 69.518 171.29 70.17 175.966 70.174 180
C 70.182 188.501 70.197 197.001 70.188 205.501
C 70.157 237.836 70.265 270.171 70.234 302.505
C 70.224 312.673 70.27 322.84 70.248 333.007
C 70.237 337.754 70.963 343.151 70.112 347.819
C 69.118 349.349 67.622 350.566 66.479 351.989
C 62.077 357.467 57.324 362.559 52.612 367.767
C 51.127 369.409 49.523 370.993 48.134 372.716
C 47.576 373.408 46.84 374.651 45.981 374.954
C 46.376 358.162 45.9 341.301 45.919 324.495
C 45.96 286.996 45.986 249.494 45.939 211.995
C 45.92 196.995 45.92 181.995 45.922 166.996
C 45.923 159.601 45.377 151.976 45.966 144.607 Z"
opacity="1" fill="rgb(27,60,124)" fill-rule="evenodd" />
<path d="
M 71.988 437.236
C 74.412 437.459 77.153 437.454 79.584 437.207
C 83.826 442.26 87.212 448.386 90.997 453.811
C 92.065 455.34 93.046 457.839 94.351 459.069
C 95.988 457.116 97.322 454.691 98.715 452.539
C 100.924 449.126 103.434 445.878 105.753 442.537
C 106.961 440.797 107.942 438.732 109.426 437.218
C 111.739 437.342 114.33 436.897 116.581 437.404
C 115.403 439.865 113.232 442.2 111.638 444.436
C 108.311 449.107 105.17 453.92 101.892 458.626
C 100.569 460.524 98.71 462.481 97.741 464.579
C 97.096 465.977 97.603 467.952 97.589 469.448
C 97.555 473.211 97.168 477.161 97.553 480.901
C 95.523 481.098 93.453 480.903 91.422 481.118
C 91.112 477.373 91.389 473.52 91.37 469.763
C 91.362 468.163 91.705 466.126 91.222 464.584
C 90.922 463.626 89.974 462.783 89.397 461.979
C 88.069 460.13 86.715 458.293 85.413 456.427
C 80.956 450.039 76.238 443.757 71.988 437.236 Z"
opacity="1" fill="rgb(25,55,117)" fill-rule="evenodd" />
<path d="
M 120.74 472.45
C 122.228 471.217 123.815 469.681 125.672 469.05
C 127.665 470.314 128.8 472.575 131.013 473.813
C 135.884 476.538 142.769 477.163 148.084 475.476
C 150.865 474.593 153.733 472.747 153.897 469.542
C 154.136 464.857 148.952 463.175 145.247 462.403
C 137.895 460.871 124.385 460.977 123.004 451.183
C 122.095 444.733 126.109 439.359 132.184 437.458
C 140.511 434.853 154.137 436.275 159.036 444.46
C 157.815 445.832 155.972 446.957 154.472 448.017
C 152.635 446.921 151.436 445.02 149.455 443.976
C 145.644 441.968 140.27 441.817 136.124 442.602
C 132.501 443.288 126.779 446.937 129.965 451.308
C 131.652 453.624 134.731 454.443 137.391 455.013
C 145.636 456.781 160.508 456.994 160.647 468.619
C 160.663 469.985 160.488 471.447 160.004 472.734
C 155.919 483.598 139.409 483.56 130.382 480.116
C 127.502 479.018 124.646 477.631 122.508 475.34
C 121.763 474.541 120.653 473.575 120.74 472.45 Z"
opacity="1" fill="rgb(23,53,115)" fill-rule="evenodd" />
<path d="
M 194.622 437.676
C 198.367 437.238 202.233 437.536 206.001 437.538
C 213.382 437.541 220.764 437.6 228.144 437.595
C 228.382 439.455 227.973 441.432 228.297 443.259
C 221.7 442.644 214.686 443.294 208.052 443.329
C 206.101 443.34 202.454 442.686 200.942 443.998
C 200.718 448.216 200.927 452.454 200.833 456.676
C 204.129 457.084 207.684 456.746 211.011 456.755
C 216.091 456.769 221.217 456.991 226.292 456.801
C 226.842 458.341 226.464 460.834 226.292 462.449
C 217.922 461.973 209.128 462.14 200.764 462.706
C 200.927 467.123 200.731 471.578 200.72 475.999
C 200.717 477.196 200.18 480.168 200.751 481.148
C 198.765 481.096 196.608 480.89 194.644 481.16
C 194.37 466.673 194.965 452.163 194.622 437.676 Z"
opacity="1" fill="rgb(229,46,44)" fill-rule="evenodd" />
<path d="
M 203.91 144.093
C 212.14 143.773 220.313 146.299 227.733 149.649
C 230.057 150.698 233.46 151.403 235.307 153.201
C 238.449 156.261 240.378 161.586 242.476 165.392
C 246.379 172.473 250.491 179.439 254.445 186.492
C 263.886 203.334 273.666 219.996 282.929 236.935
C 285.597 241.813 288.446 246.592 291.131 251.462
C 292.419 253.797 293.98 256.105 294.884 258.624
C 295.18 258.953 295.535 257.976 295.637 257.76
C 296.194 256.581 296.752 255.467 297.406 254.336
C 299.117 251.379 300.837 248.429 302.514 245.451
C 307.68 236.272 312.864 227.106 318.197 218.021
C 326.696 203.545 335.046 188.885 343.076 174.144
C 345.54 169.621 348.264 165.242 350.722 160.717
C 352.04 158.29 353.256 155 355.422 153.208
C 357.328 151.632 359.901 150.79 362.117 149.749
C 370.067 146.016 378.269 144.404 386.918 143.394
C 385.477 146.831 383.07 150.051 381.307 153.353
C 376.524 162.305 371.287 171.005 366.346 179.87
C 352.721 204.313 338.622 228.513 324.717 252.799
C 321.03 259.239 317.406 265.715 313.722 272.157
C 311.701 275.69 308.946 279.341 307.402 283.089
C 306.575 285.095 307.29 288.831 307.285 291.006
C 307.271 297.34 307.305 303.673 307.331 310.007
C 307.39 324.673 307.327 339.34 307.339 354.007
C 307.343 358.674 307.35 363.34 307.335 368.007
C 307.328 370.23 307.034 372.672 307.33 374.868
C 299.529 374.583 291.316 374.269 283.539 374.942
C 282.534 373.841 283.16 370.359 283.159 368.881
C 283.156 363.255 283.153 357.628 283.16 352.002
C 283.179 336.169 283.179 320.336 283.222 304.503
C 283.235 299.669 283.233 294.835 283.254 290.001
C 283.262 288.111 283.766 285.498 283.171 283.695
C 282.63 282.054 281.313 280.478 280.451 278.982
C 278.707 275.959 277.029 272.899 275.293 269.872
C 270.164 260.933 265.125 251.934 260.106 242.932
C 241.658 209.843 221.912 177.418 203.91 144.093 Z"
opacity="1" fill="rgb(26,60,124)" fill-rule="evenodd" />
<path d="
M 234.984 458.114
C 235.1 455.059 235.845 451.887 237.139 449.119
C 243.03 436.527 260.018 433.004 271.005 441.277
C 276.851 445.679 279.987 453.232 279.607 460.485
C 279.314 466.099 276.926 472.349 272.636 476.109
C 262.075 485.368 243.827 483.309 237.324 470.239
C 235.48 466.533 234.828 462.224 234.984 458.114 Z
M 241.413 455.576
C 240.063 462.295 242.619 470.212 248.608 473.906
C 258.143 479.789 270.646 474.185 272.851 463.336
C 274.074 457.323 272.473 449.901 267.474 445.906
C 257.922 438.274 243.773 443.83 241.413 455.576 Z"
opacity="1" fill="rgb(226,46,44)" fill-rule="evenodd" />
<path d="
M 252.497 155.165
C 261.175 162.733 269.257 171.062 277.669 178.938
C 283.414 184.317 289.944 189.492 295.081 195.446
C 296.053 195.144 297.116 193.681 297.863 192.974
C 300.201 190.763 302.576 188.592 304.925 186.393
C 312.306 179.487 319.746 172.648 327.037 165.646
C 329.3 163.472 331.603 161.356 333.923 159.247
C 335.056 158.216 335.73 157.039 337.208 156.44
C 337.717 156.36 335.924 159.032 335.63 159.519
C 334.501 161.387 333.576 163.39 332.449 165.265
C 329.032 170.95 325.89 176.81 322.636 182.589
C 315.835 194.666 308.989 206.715 302.043 218.71
C 300.36 221.616 298.651 224.513 297.04 227.46
C 296.648 228.178 295.921 230.556 295.181 230.84
C 293.29 228.841 292.027 225.547 290.664 223.15
C 287.285 217.206 284.032 211.191 280.687 205.231
C 273.857 193.062 266.973 180.926 260.205 168.724
C 257.702 164.213 254.641 159.844 252.497 155.165 Z"
opacity="1" fill="rgb(233,46,41)" fill-rule="evenodd" />
<path d="
M 290.479 438.611
C 290.486 438.404 290.493 438.197 290.501 437.99
C 291.241 437.328 292.385 437.544 293.358 437.506
C 295.589 437.419 297.826 437.463 300.059 437.465
C 308.528 437.475 320.71 435.431 325.744 444.202
C 330.277 452.102 325.996 464.397 316.034 464.765
C 318.832 469.178 322.903 473.243 326.288 477.244
C 327.175 478.292 328.06 479.356 329.03 480.328
C 329.174 480.473 329.963 480.952 329.832 481.164
C 327.367 481.156 324.092 481.506 321.726 480.79
C 320.175 479.643 318.987 477.696 317.751 476.22
C 314.788 472.682 311.929 468.785 308.607 465.59
C 305.981 465.502 303.351 465.592 300.724 465.577
C 299.413 465.569 297.848 465.263 296.652 465.843
C 296.625 469.217 296.572 472.596 296.559 475.972
C 296.553 477.639 296.25 479.548 296.632 481.182
C 294.709 480.828 292.199 481.008 290.252 481.177
C 290.686 475.243 290.385 469.168 290.321 463.221
C 290.274 458.92 290.576 454.636 290.543 450.342
C 290.514 446.448 290.192 442.502 290.479 438.611 Z
M 296.73 443.291
C 296.575 448.802 296.687 454.316 296.659 459.829
C 297.871 460.421 300.622 459.919 302.01 459.919
C 306.839 459.923 313.861 461.225 318.138 458.508
C 322.883 455.493 321.993 447.198 317.476 444.425
C 315.101 442.966 312.07 443.208 309.392 443.248
C 305.174 443.31 300.942 443.3 296.73 443.291 Z"
opacity="1" fill="rgb(228,47,46)" fill-rule="evenodd" />
<path d="
M 338.277 437.349
C 340.521 437.462 342.811 437.387 345.057 437.326
C 347.177 439.506 348.568 443.256 350.106 445.892
C 353.701 452.057 357.609 458.165 360.542 464.678
C 361.178 464.103 361.401 463.172 361.809 462.433
C 362.995 460.285 364.193 458.132 365.434 456.013
C 369.089 449.767 372.931 443.616 376.465 437.302
C 378.766 437.288 381.165 437.256 383.452 437.517
C 383.14 442.936 383.596 448.553 383.605 453.998
C 383.62 463.072 383.351 472.195 383.61 481.262
C 381.636 481.399 379.598 481.123 377.613 481.153
C 377.651 473.606 377.619 466.053 377.619 458.504
C 377.619 455.668 377.525 452.831 377.523 449.996
C 377.523 449.812 377.737 447.58 377.543 447.578
C 377.319 447.574 377.216 447.884 377.052 448.037
C 372.877 454.365 369.433 461.195 365.43 467.642
C 363.964 470.004 363.134 473.746 360.015 473.986
C 358.219 472.637 357.08 469.543 355.99 467.602
C 353.514 463.192 350.928 458.851 348.378 454.485
C 347.441 452.88 346.553 451.247 345.671 449.612
C 345.355 449.027 345.091 448.133 344.389 448.143
C 344.293 455.753 344.261 463.381 344.245 470.997
C 344.238 474.001 343.464 478.279 344.327 481.144
C 342.278 481.065 340.228 481.081 338.177 481.098
C 338.677 473.128 338.283 464.992 338.302 457.004
C 338.317 450.527 338.835 443.798 338.277 437.349 Z"
opacity="1" fill="rgb(222,42,41)" fill-rule="evenodd" />
<path d="
M 493.902 277.803
C 493.614 276.547 494.074 275.514 494.454 274.325
C 496.147 273.67 498.097 273.778 499.879 273.522
C 503.745 272.966 507.603 272.452 511.452 271.8
C 512.938 271.549 514.963 271.747 516.335 271.105
C 515.465 270.009 512.303 269.993 510.957 269.782
C 505.603 268.944 500.095 268.281 494.68 268.087
C 493.232 266.29 493.542 262.349 492.775 260.15
C 491.971 257.847 490.64 255.714 489.273 253.709
C 488.552 252.651 487.627 251.65 487.367 250.372
C 494.053 251.402 500.895 254.81 507.167 257.3
C 522.688 263.461 538.971 270.21 549.63 283.675
C 565.56 303.798 563.338 336.733 545.533 354.94
C 533.916 366.818 517.829 373.014 501.72 375.801
C 487.268 378.302 472.573 378.189 458.007 376.982
C 437.727 375.301 416.992 370.652 398.986 360.882
C 386.435 354.072 375.231 344.425 367.793 332.143
C 366.234 329.57 364.266 326.721 363.183 323.929
C 368.653 321.981 374.05 319.128 379.351 316.731
C 381.18 315.904 383.077 314.731 385.04 314.283
C 386.445 316.346 387.432 318.771 388.82 320.882
C 391.948 325.637 395.95 329.914 400.361 333.5
C 409.164 340.655 420.06 345.223 430.857 348.408
C 446.944 353.153 463.95 355.181 480.708 354.619
C 489.434 354.326 498.214 353.511 506.637 351.089
C 513.965 348.982 521.824 345.543 527.222 339.99
C 537.986 328.918 540.42 309.363 529.91 297.177
C 523.304 289.518 513.441 285.348 504.243 281.719
C 500.831 280.372 497.183 279.448 493.902 277.803 Z"
opacity="1" fill="rgb(28,61,124)" fill-rule="evenodd" />
<path d="
M 458.057 240.454
C 458.678 241.037 458.646 242.123 458.667 242.956
C 458.721 245.15 458.168 247.389 458.622 249.558
C 459.569 251.331 462.851 252.178 464.114 250.208
C 465.106 248.658 464.844 246.088 464.958 244.338
C 467.367 243.567 471.693 246.034 473.751 247.199
C 479.618 250.521 483.832 255.291 486.605 261.429
C 487.609 263.652 488.083 266.045 488.858 268.342
C 486.788 268.094 484.359 268.59 482.449 269.358
C 482.052 270.206 481.857 271.577 482.282 272.426
C 484.406 273.375 486.497 274.359 488.602 275.34
C 488.738 275.702 488.426 276.113 488.239 276.41
C 488.466 275.508 485.354 275.054 484.54 274.779
C 481.267 273.678 477.982 272.596 474.699 271.516
C 473.882 271.247 471.816 270.339 471.382 270.927
C 471.494 269.549 470.662 268.116 470.113 266.881
C 469.455 265.4 468.737 263.86 467.493 262.775
C 463.648 259.419 456.39 259.475 453.508 264.085
C 450.025 263.54 446.287 261.363 442.902 260.23
C 431.623 256.456 420.516 252.404 409.491 247.956
C 398.218 243.408 387.758 235.752 381.376 225.281
C 367.656 202.768 375.405 172.4 396.101 157.201
C 404.961 150.693 415.257 147 425.83 144.374
C 437.611 141.448 449.935 140.789 462.027 141.149
C 477.354 141.604 492.946 143.778 507.233 149.605
C 522.186 155.703 535.196 165.726 544.023 179.314
C 546.09 182.495 547.79 185.85 549.32 189.317
C 549.693 190.161 550.98 192.307 550.808 193.175
C 548.48 193.564 546.143 194.813 543.921 195.601
C 538.624 197.48 533.418 199.722 528.073 201.451
C 525.777 195.668 523.214 190.346 519.134 185.565
C 513.152 178.554 505.211 173.921 496.727 170.611
C 482.129 164.916 465.831 163.524 450.289 164.189
C 436.923 164.761 422.55 167.315 411.324 175.026
C 398.312 183.964 393.699 203.211 404.304 215.879
C 410.434 223.201 420.006 226.931 428.646 230.333
C 434.811 232.762 441.081 234.909 447.372 236.982
C 450.9 238.144 454.425 239.662 458.057 240.454 Z"
opacity="1" fill="rgb(28,60,123)" fill-rule="evenodd" />
<path d="
M 391.929 480.04
C 396.114 471.107 400.409 462.218 404.555 453.263
C 406.921 448.15 408.884 442.268 411.913 437.537
C 414.102 437.374 416.314 437.559 418.494 437.411
C 420.245 439.955 421.274 443.109 422.619 445.881
C 425.736 452.306 428.649 458.828 431.742 465.261
C 433.446 468.806 435.085 472.381 436.768 475.938
C 437.507 477.498 438.926 479.457 439.316 481.099
C 437.417 480.583 434.47 480.739 432.521 480.962
C 431.771 480.091 431.39 478.634 430.966 477.566
C 430.157 475.529 429.188 473.585 428.287 471.592
C 426.334 471.106 424.012 471.414 422.003 471.4
C 417.836 471.371 413.67 471.343 409.503 471.371
C 407.591 471.384 404.403 470.8 402.671 471.578
C 401.001 474.424 399.277 477.865 398.138 480.964
C 396.788 481.755 393.061 481.22 391.459 481.104
C 391.817 480.296 391.66 480.651 391.929 480.04 Z
M 405.292 465.781
C 410.192 466.354 415.565 465.832 420.51 465.79
C 421.673 465.78 422.831 465.732 423.992 465.729
C 424.28 465.728 425.317 465.87 425.488 465.557
C 421.466 458.782 418.354 450.945 415.355 443.679
C 412.393 451.043 409.102 458.821 405.292 465.781 Z"
opacity="1" fill="rgb(226,47,45)" fill-rule="evenodd" />
<path d="
M 488.239 276.41
C 488.426 276.113 488.738 275.702 488.602 275.34
C 486.497 274.359 484.406 273.375 482.282 272.426
C 481.857 271.577 482.052 270.206 482.449 269.358
C 484.359 268.59 486.788 268.094 488.858 268.342
C 488.083 266.045 487.609 263.652 486.605 261.429
C 483.832 255.291 479.618 250.521 473.751 247.199
C 471.693 246.034 467.367 243.567 464.958 244.338
C 464.844 246.088 465.106 248.658 464.114 250.208
C 462.851 252.178 459.569 251.331 458.622 249.558
C 458.168 247.389 458.721 245.15 458.667 242.956
C 458.646 242.123 458.678 241.037 458.057 240.454
C 458.595 240.224 458.32 239.512 458.361 238.948
C 458.456 237.62 458.664 236.3 458.788 234.974
C 459.328 229.199 460.463 223.361 461.654 217.707
C 462.962 222.514 463.242 228.095 464.058 233.11
C 464.324 234.742 464.232 236.99 464.977 238.458
C 470.906 239.446 476.424 241.468 481.335 245.016
C 483.333 246.459 485.188 249.424 487.367 250.372
C 487.627 251.65 488.552 252.651 489.273 253.709
C 490.64 255.714 491.971 257.847 492.775 260.15
C 493.542 262.349 493.232 266.29 494.68 268.087
C 500.095 268.281 505.603 268.944 510.957 269.782
C 512.303 269.993 515.465 270.009 516.335 271.105
C 514.963 271.747 512.938 271.549 511.452 271.8
C 507.603 272.452 503.745 272.966 499.879 273.522
C 498.097 273.778 496.147 273.67 494.454 274.325
C 494.074 275.514 493.614 276.547 493.902 277.803
C 492.519 281.229 491.729 284.519 489.726 287.725
C 485.589 294.347 479.117 299.566 471.629 301.91
C 469.239 302.659 466.792 302.838 464.351 303.294
C 463.951 308.717 462.876 314.144 461.915 319.485
C 461.671 320.839 462.223 323.25 461.433 324.405
C 460.487 322.992 460.75 320.29 460.484 318.616
C 459.663 313.464 458.825 308.338 458.223 303.16
C 443.435 302.732 428.732 289.345 428.283 274.224
C 426.798 273.489 424.697 273.744 423.07 273.552
C 419.372 273.117 415.696 272.461 412.006 271.953
C 411.128 271.833 407.252 271.911 407.405 270.973
C 412.239 269.923 417.265 269.305 422.18 268.682
C 425.742 268.23 429.373 267.521 432.977 267.748
C 435.703 267.921 441.402 267.71 440.639 271.845
C 439.544 274.349 436.246 273.692 434.066 274.116
C 436.116 286.304 445.757 296.41 458.338 297.361
C 458.12 295.568 457.779 292.867 458.804 291.288
C 460.202 289.132 463.217 289.679 464.047 292.106
C 464.552 293.582 464.313 295.621 464.262 297.154
C 466.634 297.878 470.33 296.18 472.469 295.275
C 480.024 292.075 486.76 284.683 488.239 276.41 Z"
opacity="1" fill="rgb(231,43,46)" fill-rule="evenodd" />
<path d="
M 436.428 437.978
C 436.506 437.836 436.583 437.694 436.661 437.552
C 445.937 437.305 455.231 437.465 464.511 437.452
C 466.639 437.449 468.766 437.437 470.894 437.438
C 471.739 437.439 472.956 437.232 473.412 437.956
C 473.398 439.724 473.474 441.497 473.396 443.266
C 468.21 443.284 462.952 443.531 457.78 443.394
C 457.102 452.345 457.705 461.523 457.685 470.499
C 457.68 472.999 457.713 475.499 457.69 477.999
C 457.683 478.818 457.436 480.42 457.796 481.129
C 455.782 481.163 453.722 481.062 451.722 480.942
C 451.189 474.196 451.635 467.274 451.656 460.506
C 451.674 454.869 451.223 449.072 451.592 443.455
C 446.677 443.047 441.356 444.178 436.52 443.329
C 436.503 441.568 436.532 439.739 436.428 437.978 Z"
opacity="1" fill="rgb(227,50,46)" fill-rule="evenodd" />
<path d="
M 453.508 264.085
C 456.39 259.475 463.648 259.419 467.493 262.775
C 468.737 263.86 469.455 265.4 470.113 266.881
C 470.662 268.116 471.494 269.549 471.382 270.927
C 471.098 272.772 470.328 274.696 469.221 276.203
C 465.698 280.997 458.409 281.294 454.142 277.375
C 450.599 274.122 449.922 267.556 453.508 264.085 Z"
opacity="1" fill="rgb(240,46,41)" fill-rule="evenodd" />
<path d="
M 483.285 437.378
C 485.242 437.401 487.431 437.099 489.354 437.491
C 489.5 447.317 489.452 457.167 489.441 466.998
C 489.436 471.489 488.696 476.645 489.475 481.06
C 489.252 481.309 488.346 481.104 488.011 481.108
C 486.427 481.126 484.825 480.977 483.246 481.104
C 483.955 470.679 483.281 459.96 483.26 449.506
C 483.253 445.588 482.725 441.244 483.285 437.378 Z"
opacity="1" fill="rgb(226,49,48)" fill-rule="evenodd" />
<path d="
M 500.945 454.59
C 501.469 451.74 502.576 448.859 504.142 446.418
C 510.984 435.75 526.891 433.772 536.881 441.13
C 540.964 444.137 543.763 448.885 544.871 453.777
C 545.628 457.12 545.769 460.549 545.12 463.924
C 544.298 468.198 542.259 472.518 539.159 475.616
C 527.489 487.277 506.015 481.909 501.456 466.161
C 500.387 462.466 500.251 458.365 500.945 454.59 Z
M 506.941 456.596
C 505.999 463.639 509.122 471.152 515.595 474.467
C 525.676 479.629 537.865 473.045 539.231 461.902
C 540.099 454.818 536.754 446.931 530.006 443.877
C 519.971 439.334 508.391 445.748 506.941 456.596 Z"
opacity="1" fill="rgb(226,47,44)" fill-rule="evenodd" />
<path d="
M 556.069 437.644
C 557.806 437.448 559.737 437.146 561.472 437.439
C 565.914 444.234 571.791 450.293 576.739 456.738
C 579.033 459.727 581.378 462.675 583.68 465.658
C 584.834 467.154 585.92 469.157 587.398 470.349
C 587.669 469.945 587.297 468.454 587.298 467.937
C 587.3 465.793 587.335 463.647 587.339 461.502
C 587.353 453.516 587.198 445.508 587.47 437.526
C 589.428 437.471 591.504 437.258 593.451 437.441
C 592.944 447.221 593.626 457.193 593.616 466.995
C 593.613 470.179 593.633 473.365 593.591 476.548
C 593.574 477.846 593.17 479.503 593.588 480.75
C 591.812 480.624 590.034 480.797 588.26 480.598
C 585.565 478.152 583.347 474.558 581.064 471.703
C 575.704 465 570.544 458.138 565.086 451.514
C 564.296 450.551 563.578 449.547 562.847 448.541
C 562.635 448.249 562.586 447.631 562.226 447.655
C 561.917 447.676 562.206 448.275 562.196 448.585
C 562.86 455.958 562.433 463.591 562.349 470.994
C 562.313 474.182 561.863 477.776 562.377 480.918
C 560.418 480.844 558.418 480.718 556.462 480.872
C 555.702 477.197 556.348 472.755 556.347 469
C 556.345 462.501 556.306 456.002 556.286 449.503
C 556.275 445.583 556.533 441.539 556.069 437.644 Z"
opacity="1" fill="rgb(224,48,48)" fill-rule="evenodd" />

</svg>